# xmcd
#
# Track frame offsets:
#	150
#	33191
#	94125
#	139891
#	191203
#	221237
#	267771
#	309824
#
# Disc length: 4520 seconds
#
# Revision: 0
# Processed by: cddbd v1.5.2PL0 Copyright (c) Steve Scherf et al.
# Submitted via: audiograbber 1.83.01
#
DISCID=7011a608
DTITLE=Grateful Dead - 93-01-24 Oakland Coliseum Arena, Oakland CA
DYEAR=1900
DGENRE=
TTITLE0=Samson and Delilah
TTITLE1=He's Gone
TTITLE2=Drums
TTITLE3=Space
TTITLE4=The Last Time
TTITLE5=Black Peter
TTITLE6=Sugar Magnolia
TTITLE7=Knocking On Heaven's Door
EXTD=
EXTT0=
EXTT1=
EXTT2=
EXTT3=
EXTT4=
EXTT5=
EXTT6=
EXTT7=
PLAYORDER=
